<svg width="19" height="15" viewBox="0 0 19 15" fill="none" xmlns="http://www.w3.org/2000/svg">
<path fill-rule="evenodd" clip-rule="evenodd" d="M7 3.33398C9.12333 3.33398 10.8908 4.84482 11.2875 6.85732C12.8042 6.96232 14 8.21065 14 9.75065C14 11.3607 12.6933 12.6673 11.0833 12.6673H3.5C1.56917 12.6673 0 11.0981 0 9.16732C0 7.36482 1.365 5.87732 3.12083 5.69065C3.85 4.29065 5.31417 3.33398 7 3.33398ZM3.49983 11.5007H11.0832C12.0515 11.5007 12.8332 10.719 12.8332 9.75065C12.8332 8.78232 12.0515 8.00065 11.0832 8.00065H10.2082V7.70898C10.2082 5.93565 8.77316 4.50065 6.99983 4.50065C5.52983 4.50065 4.299 5.48648 3.914 6.83398H3.49983C2.21066 6.83398 1.1665 7.87815 1.1665 9.16732C1.1665 10.4565 2.21066 11.5007 3.49983 11.5007Z" fill="#6EB257" fill-opacity="0.54"/>
<path fill-rule="evenodd" clip-rule="evenodd" d="M15.5 1.16602C16.5617 1.16602 17.4454 1.92143 17.6437 2.92768C18.4021 2.98018 19 3.60435 19 4.37435C19 5.17935 18.3467 5.83268 17.5417 5.83268H13.75C12.7846 5.83268 12 5.0481 12 4.08268C12 3.18143 12.6825 2.43768 13.5604 2.34435C13.925 1.64435 14.6571 1.16602 15.5 1.16602ZM13.7502 5.24967H17.5418C18.026 5.24967 18.4168 4.85884 18.4168 4.37467C18.4168 3.89051 18.026 3.49967 17.5418 3.49967H17.1043V3.35384C17.1043 2.46717 16.3868 1.74967 15.5002 1.74967C14.7652 1.74967 14.1497 2.24259 13.9572 2.91634H13.7502C13.1056 2.91634 12.5835 3.43842 12.5835 4.08301C12.5835 4.72759 13.1056 5.24967 13.7502 5.24967Z" fill="#6EB257" fill-opacity="0.54"/>
</svg>
