<svg width="45" height="45" viewBox="0 0 45 45" fill="none" xmlns="http://www.w3.org/2000/svg">
<g id="local_florist_24px">
<path id="icon/maps/local_florist_24px" fill-rule="evenodd" clip-rule="evenodd" d="M16.2375 25.4437C16.5188 25.4437 16.7813 25.425 17.0438 25.3875C17.925 27.5438 20.0438 29.0625 22.5 29.0625C24.9563 29.0625 27.075 27.5438 27.9563 25.3875C28.2188 25.425 28.5 25.4437 28.7625 25.4437C32.0063 25.4437 34.65 22.8 34.65 19.5563C34.65 18.225 34.1813 16.95 33.3938 15.9375C34.2 14.925 34.65 13.65 34.65 12.3188C34.65 9.075 32.0063 6.43125 28.7625 6.43125C28.4813 6.43125 28.2188 6.45 27.9563 6.4875C27.075 4.33125 24.9563 2.8125 22.5 2.8125C20.0438 2.8125 17.925 4.33125 17.0438 6.4875C16.7813 6.45 16.5 6.43125 16.2375 6.43125C12.9938 6.43125 10.35 9.075 10.35 12.3188C10.35 13.65 10.8188 14.925 11.6063 15.9375C10.8 16.95 10.3313 18.225 10.3313 19.5563C10.3313 22.8 12.975 25.4437 16.2375 25.4437ZM22.5001 25.313C21.3376 25.313 20.4001 24.3942 20.3626 23.2505L20.5876 21.2067C21.1876 21.4317 21.8251 21.563 22.5001 21.563C23.1751 21.563 23.8313 21.4317 24.4313 21.2067L24.6376 23.2505C24.6001 24.3942 23.6626 25.313 22.5001 25.313ZM27.5624 21.3194C27.8999 21.5631 28.3124 21.6944 28.7624 21.6944C29.9437 21.6944 30.9187 20.7381 30.9187 19.5381C30.9187 18.7131 30.4312 17.9631 29.6812 17.6069L28.0312 16.8194C27.8062 18.2069 27.0749 19.4069 26.0437 20.2506L27.5624 21.3194ZM27.5439 10.556C27.9189 10.3122 28.3314 10.181 28.7626 10.181C29.9439 10.181 30.9001 11.1372 30.9001 12.3185C30.9001 13.1435 30.4314 13.8747 29.6626 14.2497L28.0126 15.0372C27.7876 13.6497 27.0564 12.4497 26.0064 11.606L27.5439 10.556ZM24.6376 8.625C24.6001 7.48125 23.6626 6.5625 22.5001 6.5625C21.3376 6.5625 20.4001 7.48125 20.3626 8.625L20.5876 10.6687C21.1876 10.4437 21.8251 10.3125 22.5001 10.3125C23.1751 10.3125 23.8313 10.4437 24.4313 10.6687L24.6376 8.625ZM16.2375 10.181C16.6875 10.181 17.1 10.3122 17.4375 10.556L18.9563 11.606C17.925 12.4497 17.1938 13.6497 16.9688 15.0372L15.3188 14.2497C14.5688 13.8747 14.0813 13.1435 14.0813 12.3185C14.0813 11.1372 15.0563 10.181 16.2375 10.181ZM16.9688 16.8379L15.3188 17.6254C14.5688 18.0004 14.0813 18.7317 14.1 19.5379C14.1 20.7192 15.0563 21.6754 16.2375 21.6754C16.6688 21.6754 17.0813 21.5442 17.4563 21.3004L18.975 20.2692C17.925 19.4254 17.1938 18.2254 16.9688 16.8379ZM22.5 42.1875C31.8188 42.1875 39.375 34.6313 39.375 25.3125C30.0562 25.3125 22.5 32.8687 22.5 42.1875ZM5.625 25.3125C5.625 34.6313 13.1813 42.1875 22.5 42.1875C22.5 32.8687 14.9437 25.3125 5.625 25.3125ZM27.0749 37.612C28.4062 34.0495 31.2374 31.1995 34.7999 29.887C33.4687 33.4495 30.6374 36.2808 27.0749 37.612ZM10.1999 29.887C13.7624 31.2183 16.6124 34.0495 17.9249 37.612C14.3624 36.2808 11.5312 33.4495 10.1999 29.887Z" fill="black" fill-opacity="0.54"/>
</g>
</svg>
