<svg width="64" height="64" viewBox="0 0 64 64" fill="none" xmlns="http://www.w3.org/2000/svg">
<path d="M64 32C64 49.6731 49.6731 64 32 64C14.3269 64 0 49.6731 0 32C0 14.3269 14.3269 0 32 0C49.6731 0 64 14.3269 64 32Z" fill="#6EB257"/>
<path opacity="0.5" d="M57.2636 32.5611C57.2636 46.2035 45.9529 57.2629 32.0005 57.2629C18.048 57.2629 6.7373 46.2035 6.7373 32.5611C6.7373 18.9187 18.048 7.85938 32.0005 7.85938C45.9529 7.85938 57.2636 18.9187 57.2636 32.5611Z" fill="#4A8A4B"/>
<path d="M38.0501 38.6406C38.0501 37.4427 37.6269 36.4336 36.7806 35.6133C35.9472 34.793 34.5345 34.0508 32.5423 33.3867C29.7688 32.5404 27.7441 31.4401 26.4681 30.0859C25.205 28.7188 24.5735 26.987 24.5735 24.8906C24.5735 22.7552 25.192 21.0039 26.429 19.6367C27.679 18.2695 29.3912 17.4557 31.5657 17.1953V12.918H34.4759V17.2148C36.6634 17.5143 38.3626 18.4323 39.5735 19.9688C40.7975 21.5052 41.4095 23.6081 41.4095 26.2773H37.8157C37.8157 24.4414 37.3795 22.9831 36.5071 21.9023C35.6347 20.8216 34.4563 20.2812 32.972 20.2812C31.4225 20.2812 30.2376 20.6849 29.4173 21.4922C28.597 22.2865 28.1868 23.3997 28.1868 24.832C28.1868 26.1602 28.6165 27.2214 29.4759 28.0156C30.3483 28.7969 31.7741 29.513 33.7532 30.1641C35.7454 30.8021 37.2949 31.5117 38.4017 32.293C39.5214 33.0612 40.3418 33.9596 40.8626 34.9883C41.3964 36.0169 41.6634 37.2214 41.6634 38.6016C41.6634 40.8021 40.9993 42.5729 39.6712 43.9141C38.3561 45.2552 36.5071 46.0495 34.1243 46.2969V50.0273H31.2337V46.2969C28.8118 46.0755 26.9108 45.2161 25.5306 43.7188C24.1634 42.2083 23.4798 40.1641 23.4798 37.5859H27.0931C27.0931 39.3958 27.5683 40.7891 28.5188 41.7656C29.4694 42.7422 30.817 43.2305 32.5618 43.2305C34.2675 43.2305 35.6087 42.8203 36.5853 42C37.5618 41.1797 38.0501 40.0599 38.0501 38.6406Z" fill="#6EB257"/>
<path d="M21.3338 14.5957L26.1957 20.4904H16.4719L21.3338 14.5957Z" fill="#1A4721"/>
<path d="M21.333 17.9648L29.1121 25.5438H13.554L21.333 17.9648Z" fill="#1A4721"/>
<path d="M21.3338 22.457L30.0852 32.5623H12.5824L21.3338 22.457Z" fill="#1A4721"/>
<path d="M21.3335 28.0703L31.0573 39.0177H11.6097L21.3335 28.0703Z" fill="#1A4721"/>
</svg>
